<svg width="18" height="18" viewBox="0 0 18 18" fill="none" xmlns="http://www.w3.org/2000/svg">
<path d="M9.01485 4.33618C6.42433 4.33618 4.31635 6.41341 4.31635 8.96691C4.31635 11.5201 6.42403 13.5973 9.01485 13.5973C11.6054 13.5973 13.7134 11.5201 13.7134 8.96691C13.7134 6.41341 11.6054 4.33618 9.01485 4.33618ZM9.01485 11.8926C7.36762 11.8926 6.02776 10.5799 6.02776 8.96691C6.02776 7.35363 7.36762 6.04125 9.01485 6.04125C10.6618 6.04125 12.0019 7.35363 12.0019 8.96691C12.0019 10.5802 10.6621 11.8926 9.01485 11.8926Z" fill="#4F4F4F"/>
<path d="M12.819 0H5.18105C2.32438 0 0 2.31507 0 5.16096V12.839C0 15.6846 2.32408 18 5.18105 18H12.819C15.6759 18 18 15.6846 18 12.839V5.16096C18 2.31536 15.6759 0 12.819 0ZM16.2853 12.839C16.2853 14.743 14.7303 16.292 12.819 16.292H5.18105C3.26973 16.292 1.71465 14.743 1.71465 12.839V5.16096C1.71465 3.25705 3.26973 1.708 5.18105 1.708H12.819C14.7303 1.708 16.2853 3.25705 16.2853 5.16096V12.839Z" fill="#4F4F4F"/>
<path d="M13.797 5.24835C14.4075 5.24835 14.9025 4.75532 14.9025 4.14713C14.9025 3.53893 14.4075 3.0459 13.797 3.0459C13.1864 3.0459 12.6915 3.53893 12.6915 4.14713C12.6915 4.75532 13.1864 5.24835 13.797 5.24835Z" fill="#4F4F4F"/>
</svg>
